<svg xmlns="http://www.w3.org/2000/svg" viewBox="0 0 600 122" enable-background="new 0 0 600 122"><path d="m212.89 10.361l-16.292 22.933c-6.797-3.259-13.08-4.893-18.84-4.893-3.833 0-6.908.99-9.218 2.975-2.321 1.98-3.475 4.604-3.475 7.869 0 6.2 4.426 10.956 16.253 10.956v-9.784h29.723v37.31c-13.662.762-22.907 1.144-27.735 1.144-18.659 0-31.62-3.961-38.871-11.897-7.264-7.92-10.895-17.17-10.895-27.728 0-7.266 1.692-13.928 5.072-19.986 3.384-6.07 8.263-10.765 14.643-14.1 6.381-3.333 13.938-5 22.668-5 6.13 0 12.474.893 19.04 2.675 6.559 1.787 12.541 4.291 17.938 7.521"/><path d="m303.04 1.362v34.581c0 15.09-3.854 26.02-11.563 32.779-7.718 6.771-16.515 10.144-26.412 10.144-7.164 0-13.971-1.867-20.415-5.595-6.444-3.731-10.969-8.654-13.569-14.767-2.6-6.115-3.895-14.14-3.895-24.06v-33.08h31.27v33.837c0 3.806.064 5.544.198 6.38.461 2.899 2.369 5.663 6.58 5.663 4.01 0 5.874-2.905 6.317-5.627.121-.746.23-2.148.23-6.446l.096-33.789 31.16-.016"/><path d="M316.326,29.977V1.373h67.767v28.604h-18.974v47.65h-29.974v-47.65H316.326"/><path d="m461.86 58.49v19.14h-63.33v-76.25h63.33v19.14h-33.26v9.841h24.25v18.348h-24.25v9.79h33.26"/><path d="m500.42 39.03l-29.795-37.669h36.896l11.231 14.04 10.744-14.04h36.641l-28.846 37.489 30.691 38.768h-36.922l-12.1-15.14-11.642 15.14h-36.691l29.796-38.588"/><path d="m595.24 5.746c1.871 1.875 2.81 4.149 2.81 6.798 0 2.657-.936 4.918-2.805 6.798-1.869 1.869-4.121 2.814-6.757 2.814-2.653 0-4.912-.936-6.782-2.81-1.863-1.869-2.799-4.139-2.799-6.803 0-2.651.936-4.923 2.811-6.798 1.868-1.88 4.13-2.827 6.771-2.827 2.628.003 4.876.944 6.751 2.828m-12.506-3.194c-1.776 1.03-3.185 2.438-4.217 4.22-1.03 1.776-1.549 3.705-1.549 5.774 0 2.068.511 4 1.539 5.773 1.022 1.783 2.427 3.188 4.201 4.213 1.779 1.026 3.708 1.539 5.782 1.539 2.064 0 3.977-.516 5.754-1.549 1.776-1.025 3.18-2.428 4.208-4.207 1.025-1.772 1.546-3.695 1.546-5.77 0-2.059-.516-3.977-1.549-5.764-1.025-1.772-2.434-3.185-4.213-4.22-1.782-1.037-3.689-1.549-5.744-1.549-2.067-.001-3.991.512-5.758 1.54m5.445 5.477c1.166 0 1.977.133 2.433.41.467.269.7.751.7 1.433 0 .649-.241 1.126-.721 1.421-.472.305-1.228.453-2.262.453h-2.423v-3.715h2.272v-.002zm-2.275 5.422h1.177c.756 0 1.366.205 1.812.619.457.414 1.077 1.325 1.859 2.723l1.082 1.948h2.428l-1.487-2.421c-.625-1.012-1.146-1.74-1.551-2.184-.41-.443-.852-.762-1.312-.957 1.025-.079 1.876-.448 2.533-1.095.661-.656.992-1.456.992-2.405 0-.631-.19-1.229-.566-1.787-.375-.557-.877-.956-1.498-1.199-.625-.239-1.692-.359-3.205-.359h-4.274v12.404h2.01v-5.287"/><path fill="#e30613" d="m12.792.696c.777.01 1.777.016 2.969.016 1.189 0 2.564.005 4.082.005 1.518.011 3.174.011 4.938.011 1.761.005 3.62.005 5.535.005 3.833 0 7.838-.005 11.705-.005 3.859-.006 7.584-.006 10.856-.016 3.274 0 6.098-.006 8.167-.008 2.059 0 3.369-.006 3.605-.006.054 0 .361 0 .817.034.454.021 1.054.063 1.697.159.636.098 1.318.235 1.931.451.615.213 1.167.5 1.546.877l-42.479 42.667c-.016.011-.1.095-.192.241-.098.146-.208.336-.277.568-.066.224-.1.488-.041.777.059.277.213.574.51.875l3.492 3.5c.005.008.039.046.1.087.054.044.141.107.244.167.107.056.228.115.369.161.139.049.292.077.461.077.082 0 .167-.011.256-.031.085-.016.174-.046.267-.079.09-.046.18-.093.272-.157.095-.056.185-.138.279-.23l14.346-14.411 28-28.13c.013.015.092.082.203.251.107.167.251.426.392.82.133.398.274.929.375 1.634.105.708.169 1.587.169 2.685l-.009 38.917v13.39c0 .154.028.977-.136 2.134-.164 1.153-.508 2.636-1.244 4.107-.733 1.459-1.854 2.918-3.566 3.995-1.713 1.082-4.02 1.797-7.118 1.797-3.1 0-7.797.005-13.13.005-5.331 0-11.302.016-16.948.021-5.646.005-10.969.01-15 .015-4.03.011-6.782.016-7.28.016-.415 0-1.431-.025-2.718-.267-1.29-.23-2.858-.675-4.372-1.511-1.512-.833-2.976-2.064-4.061-3.858-1.082-1.808-1.792-4.185-1.792-7.32 0-.585 0-3.768-.002-8.301v-16.399c0-5.975-.003-12.05-.005-16.954 0-4.905 0-8.646 0-9.964-.002-1.318.236-2.772.733-4.221.502-1.446 1.262-2.885 2.3-4.16 1.036-1.272 2.352-2.38 3.972-3.167 1.627-.8 3.545-1.274 5.786-1.274"/><g fill="#1d1d1b"><path d="M0,100.216h17.966v2.741h-7.498v18.796H7.375v-18.796H0V100.216z"/><path d="m27.27 100.12h2.164l9.643 21.629h-3.151l-2.867-6.373h-9.176l-2.687 6.373h-3.164l9.238-21.629m4.524 12.516l-3.47-7.79-3.217 7.79h6.687"/><path d="m51.39 121.75h-7.282v-21.506h5.635c1.775 0 3.161.239 4.156.716.996.477 1.755 1.134 2.278 1.97.524.836.786 1.804.786 2.902 0 2.114-1.093 3.628-3.279 4.541 1.57.298 2.82.944 3.749 1.94.929.995 1.393 2.186 1.393 3.571 0 1.099-.282 2.078-.846 2.94-.565.862-1.394 1.565-2.486 2.109-1.095.545-2.462.817-4.104.817m-1.555-18.766h-2.648v6.466h2.048c1.642 0 2.809-.313 3.502-.939.692-.626 1.039-1.437 1.039-2.433 0-2.062-1.314-3.094-3.941-3.094m.23 9.206h-2.878v6.82h3.03c1.684 0 2.825-.131 3.426-.392.6-.262 1.082-.67 1.447-1.224.364-.554.546-1.149.546-1.786 0-.657-.192-1.257-.577-1.802-.385-.543-.932-.949-1.64-1.216-.708-.266-1.827-.4-3.357-.4"/><path d="m64.54 100.25h3.079v18.705h9.683v2.801h-12.762v-21.506"/><path d="m82.67 100.25h12.192v2.74h-9.114v6.559h8.806v2.755h-8.806v6.681h9.406v2.741h-12.484v-21.476"/><path d="m101.21 121.75v-21.506h5.388c2.176 0 3.902.539 5.181 1.616 1.277 1.078 1.917 2.535 1.917 4.372 0 1.252-.313 2.334-.939 3.248-.625.914-1.524 1.596-2.693 2.048.688.451 1.359 1.067 2.02 1.848.657.779 1.581 2.14 2.771 4.079.75 1.221 1.35 2.14 1.802 2.755l1.139 1.54h-3.664l-.938-1.417c-.03-.051-.092-.138-.185-.262l-.6-.847-.954-1.571-1.029-1.68c-.636-.883-1.218-1.585-1.747-2.108-.529-.522-1.01-.899-1.434-1.129-.427-.23-1.144-.346-2.149-.346h-.802v9.36h-3.081m4-18.888h-.923v6.789h1.169c1.56 0 2.63-.134 3.21-.4.58-.267 1.031-.67 1.355-1.209.323-.538.484-1.151.484-1.839 0-.677-.179-1.291-.539-1.84-.359-.549-.864-.937-1.517-1.162-.65-.226-1.73-.339-3.239-.339"/><path d="m131.5 99.94c3.322 0 6.09 1.052 8.299 3.156 2.211 2.104 3.316 4.741 3.316 7.913 0 3.171-1.115 5.796-3.347 7.874-2.23 2.079-5.04 3.118-8.438 3.118-3.24 0-5.941-1.039-8.099-3.118-2.159-2.078-3.239-4.682-3.239-7.812 0-3.212 1.088-5.871 3.262-7.975 2.174-2.103 4.923-3.156 8.246-3.156m.123 2.926c-2.461 0-4.483.77-6.067 2.309-1.584 1.54-2.376 3.505-2.376 5.896 0 2.32.795 4.249 2.384 5.789 1.589 1.539 3.578 2.309 5.967 2.309 2.399 0 4.401-.785 6.01-2.355 1.605-1.569 2.408-3.524 2.408-5.865 0-2.278-.803-4.195-2.408-5.75-1.605-1.556-3.576-2.333-5.914-2.333"/><path d="m154.91 112.74l-2.34-1.421c-1.467-.896-2.511-1.778-3.132-2.646-.621-.867-.931-1.865-.931-2.994 0-1.693.587-3.069 1.763-4.126 1.175-1.057 2.701-1.585 4.58-1.585 1.796 0 3.443.504 4.941 1.513v3.494c-1.55-1.49-3.218-2.236-5-2.236-1.01 0-1.832.233-2.479.698-.647.465-.97 1.061-.97 1.787 0 .644.238 1.247.714 1.81.477.562 1.242 1.153 2.298 1.771l2.352 1.391c2.623 1.567 3.935 3.562 3.935 5.983 0 1.725-.577 3.125-1.731 4.203-1.155 1.077-2.656 1.616-4.503 1.616-2.125 0-4.059-.653-5.804-1.959v-3.91c1.663 2.107 3.586 3.16 5.773 3.16.964 0 1.768-.268 2.409-.806.642-.537.962-1.209.962-2.02-.001-1.31-.946-2.552-2.834-3.726"/><path d="m185.48 100.12h2.164l9.643 21.629h-3.152l-2.866-6.373h-9.176l-2.687 6.373h-3.164l9.238-21.629m4.524 12.516l-3.47-7.79-3.217 7.79h6.687"/><path d="m202.35 100.25h3.08v21.506h-3.08v-21.506"/><path d="m218.21 112.74l-2.339-1.421c-1.468-.896-2.512-1.778-3.133-2.646-.621-.867-.931-1.865-.931-2.994 0-1.693.586-3.069 1.762-4.126 1.174-1.057 2.702-1.585 4.579-1.585 1.797 0 3.444.504 4.942 1.513v3.494c-1.549-1.49-3.217-2.236-5-2.236-1.01 0-1.832.233-2.479.698-.647.465-.97 1.061-.97 1.787 0 .644.238 1.247.714 1.81.477.562 1.242 1.153 2.298 1.771l2.351 1.391c2.623 1.567 3.935 3.562 3.935 5.983 0 1.725-.576 3.125-1.731 4.203-1.156 1.077-2.656 1.616-4.503 1.616-2.125 0-4.06-.653-5.804-1.959v-3.91c1.663 2.107 3.587 3.16 5.773 3.16.964 0 1.767-.268 2.41-.806.64-.537.96-1.209.96-2.02.001-1.31-.943-2.552-2.832-3.726"/><path d="m230 100.25h3.079v18.705h9.683v2.801h-12.762v-21.506"/><path d="m255.01 100.12h2.164l9.643 21.629h-3.151l-2.866-6.373h-9.176l-2.686 6.373h-3.166l9.238-21.629m4.523 12.516l-3.47-7.79-3.217 7.79h6.687"/><path d="m288.94 100.25h2.925v21.506h-2.649l-14.378-16.563v16.563h-2.895v-21.506h2.494l14.502 16.704v-16.704"/><path d="m297.31 100.22h17.966v2.741h-7.496v18.796h-3.096v-18.796h-7.374v-2.741"/><path d="m320.87 100.25h12.192v2.74h-9.113v6.559h8.807v2.755h-8.807v6.681h9.405v2.741h-12.484v-21.476"/><path d="m344.64 112.74l-2.339-1.421c-1.468-.896-2.513-1.778-3.132-2.646-.622-.867-.933-1.865-.933-2.994 0-1.693.588-3.069 1.764-4.126 1.175-1.057 2.701-1.585 4.579-1.585 1.796 0 3.442.504 4.941 1.513v3.494c-1.55-1.49-3.218-2.236-5-2.236-1.01 0-1.833.233-2.479.698-.648.465-.971 1.061-.971 1.787 0 .644.237 1.247.715 1.81.475.562 1.242 1.153 2.298 1.771l2.351 1.391c2.623 1.567 3.935 3.562 3.935 5.983 0 1.725-.577 3.125-1.73 4.203-1.155 1.077-2.657 1.616-4.504 1.616-2.124 0-4.06-.653-5.803-1.959v-3.91c1.662 2.107 3.586 3.16 5.772 3.16.963 0 1.768-.268 2.409-.806.64-.537.962-1.209.962-2.02.001-1.31-.944-2.552-2.833-3.726"/><path d="m371.53 121.72v-21.476h7.251c2.926 0 5.24.438 6.944 1.316 1.704.878 3.057 2.168 4.063 3.872 1.01 1.704 1.508 3.561 1.508 5.573 0 1.437-.276 2.812-.831 4.126-.554 1.313-1.344 2.468-2.37 3.463-1.047 1.026-2.263 1.802-3.648 2.324-.811.318-1.554.531-2.233.639-.676.108-1.97.162-3.878.162h-6.806m6.929-18.735h-3.849v15.995h3.94c1.54 0 2.735-.105 3.587-.315.853-.21 1.563-.477 2.132-.801.57-.323 1.092-.721 1.563-1.192 1.519-1.54 2.278-3.485 2.278-5.835 0-2.309-.78-4.192-2.34-5.65-.575-.544-1.233-.99-1.979-1.339s-1.45-.58-2.117-.692c-.665-.114-1.737-.171-3.215-.171"/><path d="m397.83 100.25h12.191v2.74h-9.114v6.559h8.804v2.755h-8.804v6.681h9.405v2.741h-12.482v-21.476"/><path d="m448.44 100.25h2.879v21.506h-3.093v-16.734l-6.612 8.312h-.57l-6.688-8.312v16.733h-3.08v-21.506h2.915l7.146 8.832 7.103-8.831"/><path d="m465.5 100.12h2.163l9.641 21.629h-3.149l-2.866-6.373h-9.176l-2.688 6.373h-3.166l9.241-21.629m4.523 12.516l-3.47-7.79-3.22 7.79h6.69"/><path d="m482.37 121.72v-21.476h7.252c2.926 0 5.238.438 6.942 1.316 1.704.878 3.058 2.168 4.064 3.872 1 1.704 1.508 3.561 1.508 5.573 0 1.437-.276 2.812-.832 4.126-.552 1.313-1.342 2.468-2.37 3.463-1.045 1.026-2.264 1.802-3.647 2.324-.811.318-1.555.531-2.233.639-.677.108-1.97.162-3.878.162h-6.806m6.927-18.735h-3.847v15.995h3.939c1.539 0 2.737-.105 3.587-.315.852-.21 1.564-.477 2.132-.801.571-.323 1.093-.721 1.562-1.192 1.521-1.54 2.279-3.485 2.279-5.835 0-2.309-.779-4.192-2.339-5.65-.576-.544-1.234-.99-1.98-1.339-.743-.349-1.448-.58-2.114-.692-.668-.114-1.74-.171-3.219-.171"/><path d="m508.66 100.25h12.194v2.74h-9.114v6.559h8.807v2.755h-8.807v6.681h9.406v2.741h-12.486v-21.476"/><path d="m527.2 121.75v-21.506h5.388c2.177 0 3.904.539 5.182 1.616 1.278 1.078 1.916 2.535 1.916 4.372 0 1.252-.312 2.334-.939 3.248-.625.914-1.523 1.596-2.693 2.048.687.451 1.361 1.067 2.02 1.848.658.779 1.58 2.14 2.771 4.079.751 1.221 1.351 2.14 1.802 2.755l1.139 1.54h-3.663l-.94-1.417c-.028-.051-.09-.138-.183-.262l-.6-.847-.952-1.571-1.03-1.68c-.636-.883-1.219-1.585-1.748-2.108-.529-.522-1.01-.899-1.433-1.129-.427-.23-1.142-.346-2.151-.346h-.8v9.36h-3.083m4-18.888h-.924v6.789h1.169c1.56 0 2.631-.134 3.21-.4.58-.267 1.032-.67 1.355-1.209.322-.538.485-1.151.485-1.839 0-.677-.181-1.291-.54-1.84-.358-.549-.865-.937-1.516-1.162-.652-.226-1.731-.339-3.239-.339"/><path d="m555.7 100.12h2.163l9.644 21.629h-3.152l-2.866-6.373h-9.173l-2.69 6.373h-3.163l9.237-21.629m4.524 12.516l-3.47-7.79-3.218 7.79h6.688"/></g></svg>